Coordinates
version=1
nRows=13
nColumns=34
inDegrees=yes

Units are S.I. units (second, meters, Newtons, ...)
If the header above contains a line with 'inDegrees', this indicates whether rotational values are in degrees (yes) or radians (no).

endheader
time	pelvis_tilt	pelvis_list	pelvis_rotation	pelvis_tx	pelvis_ty	pelvis_tz	hip_flexion_r	hip_adduction_r	hip_rotation_r	knee_angle_r	ankle_angle_r	subtalar_angle_r	mtp_angle_r	hip_flexion_l	hip_adduction_l	hip_rotation_l	knee_angle_l	ankle_angle_l	subtalar_angle_l	mtp_angle_l	lumbar_extension	lumbar_bending	lumbar_rotation	arm_flex_r	arm_add_r	arm_rot_r	elbow_flex_r	pro_sup_r	arm_flex_l	arm_add_l	arm_rot_l	elbow_flex_l	pro_sup_l
      0.00000000	      7.92473768	     -1.22346258	     -2.75967024	      0.52150315	      0.96278288	     -0.08663164	     -2.27874961	      3.71749433	    -10.72440661	      8.59250949	    -14.00379548	    -23.83097599	      0.00000000	     -1.81265598	     -3.45313038	     -2.09830873	     14.53602599	      5.35288515	     -1.05040984	      0.00000000	     -9.21097227	      8.58588900	      6.28314419	     45.58404971	     13.69849527	     55.15827194	    150.00035077	    112.05329503	     63.49206230	     27.61809586	     73.53944708	    119.41562124	    113.36261119
      0.01666670	      7.34407887	     -0.24170991	     -1.96106957	      0.52339077	      0.96113220	     -0.08683003	     -0.95570892	      3.08054789	    -11.19275726	      8.35302661	    -12.54921588	    -24.15771931	      0.00000000	     -0.16426642	     -2.20891907	     -0.67117617	     15.48829935	      4.61380264	     -0.60380185	      0.00000000	     -8.17100584	      7.61111237	      5.00494740	     44.75169744	     15.26607753	     54.36499959	    150.00035077	    112.78232490	     62.75789958	     27.10055394	     74.92176832	    122.01490375	    113.04319670
      0.03333330	      5.06136758	      0.39814010	     -1.74735913	      0.52238984	      0.95666780	     -0.08571897	      1.67897303	      2.59276086	    -12.46831590	      7.96975637	    -13.70928490	    -25.11530843	      0.00000000	      3.16275394	     -1.69978214	     -0.39728988	     16.75317380	      4.43608336	     -0.67848815	      0.00000000	     -5.02895527	      6.40364613	      5.20513753	     44.17579922	     15.57215454	     53.29536934	    150.00035077	    116.03112320	     61.81043464	     27.10524581	     74.87310945	    122.24810966	    111.74936250
      0.05000000	      5.02251424	      0.62303165	     -1.50255423	      0.52540904	      0.95777541	     -0.08643790	      1.48191712	      2.36019212	    -12.43520340	      7.77048920	    -13.85368592	    -24.99859804	      0.00000000	      3.40158134	     -1.50013941	     -0.30097383	     17.46780175	      4.47021090	     -0.75301725	      0.00000000	     -5.02053444	      5.92891168	      5.07800161	     44.26608861	     15.54804399	     53.35153003	    150.00035077	    116.10277619	     61.70780217	     26.92214261	     74.96407051	    122.01334493	    111.73172574
      0.06666670	      4.70103792	      0.64107979	     -0.83924661	      0.52601482	      0.95912187	     -0.08673186	      1.54905103	      2.43929957	    -13.10823217	      7.29597943	    -14.50239423	    -25.55765672	      0.00000000	      4.02817535	     -1.42626964	      0.68381208	     17.83231635	      4.10078461	     -1.29496578	      0.00000000	     -4.52339829	      5.60313264	      3.93610531	     44.21260502	     15.72293961	     54.76353760	    150.00035077	    116.59490527	     61.24918926	     27.02019398	     75.95907042	    120.25946847	    111.64958211
      0.08333330	      4.62400413	      0.69491516	     -0.43508247	      0.52503118	      0.95962714	     -0.08678301	      1.56476454	      2.45994614	    -13.02875829	      7.12899924	    -14.98080184	    -26.47782794	      0.00000000	      4.48184392	     -1.29483735	      1.28709942	     18.18405669	      3.42975263	     -2.08544154	      0.00000000	     -4.92840934	      4.79570145	      4.26565085	     43.95534567	     14.71213099	     54.30892751	    150.00035077	    117.02689861	     61.78307595	     27.55327909	     76.80011060	    119.02939636	    111.44978926
      0.10000000	      4.59400291	      0.86179114	     -0.05088219	      0.52639114	      0.95956633	     -0.08698304	      1.32385073	      2.33624750	    -13.03930940	      6.60946013	    -15.61943247	    -26.88985825	      0.00000000	      4.46678065	     -1.09852108	      1.56110676	     17.90592668	      2.72038598	     -2.18210781	      0.00000000	     -5.12643904	      4.13499646	      3.78669299	     43.61112611	     14.46226951	     54.01824276	    149.43105466	    117.22251522	     61.88408255	     27.67696898	     77.46914423	    118.50643143	    111.31606746
      0.11666670	      5.07786159	      1.02556795	      0.39514744	      0.53077627	      0.96380090	     -0.08665397	      0.24062681	      2.29767127	    -13.15547182	      6.13852813	    -16.90029080	    -27.91494949	      0.00000000	      3.41817809	     -0.88785841	      2.23025202	     17.18076614	      2.26335042	     -3.01894175	      0.00000000	     -5.20047277	      3.67020978	      3.78042433	     43.38975425	     14.64866249	     52.72185950	    150.00035077	    117.59613968	     61.88941665	     28.34873031	     77.96291902	    117.91111064	    110.81203264
      0.13333330	      5.02606954	      1.03231072	      0.44147633	      0.52565838	      0.96083795	     -0.08553076	      0.47518861	      2.38059920	    -13.23857771	      5.87670838	    -16.91094655	    -27.96747698	      0.00000000	      3.55860097	     -0.88438935	      2.27826013	     16.94229072	      2.25529061	     -2.99418551	      0.00000000	     -5.49234122	      3.55462357	      3.85931247	     43.42376002	     14.61788573	     52.70260929	    149.90852839	    117.60098949	     61.92300998	     28.36673108	     77.96859971	    117.91341823	    110.80183161
      0.15000000	      5.34712158	      1.10848126	      0.80726919	      0.52323738	      0.96097414	     -0.08550092	      0.06152282	      2.42010422	    -13.02906734	      5.36166322	    -18.47954747	    -29.28009224	      0.00000000	      3.36971055	     -0.70523981	      3.11926928	     16.80251840	      1.30007796	     -3.26741768	      0.00000000	     -6.23566047	      3.29916153	      4.01511231	     43.69688862	     13.70931602	     52.05154647	    147.34293766	    117.71781276	     63.27591673	     28.70779079	     78.94625243	    117.35101060	    110.19861234
      0.16666670	      5.63145943	      1.24611143	      0.79146021	      0.52511758	      0.96501537	     -0.08615143	     -0.32760078	      2.34067878	    -13.24303692	      5.06898151	    -19.42916721	    -29.96004264	      0.00000000	      2.81999918	     -0.53899062	      3.20095789	     16.36669476	      1.16792325	     -3.10273192	      0.00000000	     -6.50732366	      3.19928326	      3.38410247	     43.38302267	     13.07542295	     49.88661964	    141.57851173	    117.43721989	     63.18395235	     27.33138676	     78.71600225	    117.74950476	    109.32644291
      0.18333330	      5.97061174	      1.27089803	      0.82900271	      0.52582724	      0.96284802	     -0.08517258	     -0.74911591	      2.39488058	    -13.60773460	      4.69162608	    -20.39375657	    -30.86796482	      0.00000000	      2.20048088	     -0.49206328	      3.61372672	     15.93888211	      1.34869751	     -3.16479714	      0.00000000	     -6.77514848	      3.25276487	      2.58534556	     43.11741199	     12.94370073	     48.61889952	    136.14810238	    116.60953927	     63.16655204	     26.23726407	     78.44575163	    118.29857535	    108.19914289
      0.20000000	      6.08981850	      1.27712362	      0.77197157	      0.52575134	      0.96248062	     -0.08451494	     -0.87434431	      2.43981300	    -13.60257952	      4.78572405	    -20.38983379	    -30.88318959	      0.00000000	      2.09901399	     -0.46933100	      3.65657656	     16.05569696	      1.37740514	     -3.16893650	      0.00000000	     -6.55603063	      3.31008893	      2.56439231	     43.10294756	     13.03337024	     48.65569772	    136.25180531	    116.59768644	     63.14402195	     26.30160855	     78.47842337	    118.33105341	    108.18808055
